<svg width="777" height="753" viewBox="0 0 777 753" fill="none" xmlns="http://www.w3.org/2000/svg">
<path d="M45.9599 522.104V682.532C45.9599 691.902 53.556 699.497 62.9249 699.497H370.286C367.625 693.824 366.13 687.5 366.13 680.83V522.104H45.9599Z" fill="white"/>
<path d="M25.4475 495.799H45.9599H366.129V481.18V460.467C366.129 460.273 366.134 460.081 366.136 459.886C366.227 446.978 369.36 434.778 374.854 423.974C377.225 419.312 380.034 414.908 383.228 410.821C387.027 405.961 391.369 401.546 396.16 397.667C410.038 386.429 427.7 379.687 446.908 379.687H466.041V342.947C466.041 315.085 443.454 292.499 415.593 292.499H369.949C361.039 292.499 353.3 298.631 351.263 307.305L330.046 397.668L326.956 410.822L324.77 420.133C324.464 421.438 324.104 422.719 323.691 423.974H309.624C309.469 419.573 309.021 415.18 308.286 410.821C308.161 410.064 308.027 409.312 307.883 408.559L305.061 397.667L288.46 333.589L301.71 304.347C304.225 298.795 300.166 292.499 294.071 292.499H265.633C259.537 292.499 255.478 298.795 257.994 304.347L271.243 333.589L254.013 397.667L251.395 407.403C251.168 408.539 250.966 409.679 250.778 410.821C250.058 415.181 249.624 419.572 249.482 423.974H236.012C235.601 422.718 235.241 421.438 234.934 420.133L232.747 410.822L229.659 397.667L208.441 307.307C206.405 298.632 198.666 292.501 189.755 292.501H144.113C116.251 292.501 93.6646 315.087 93.6646 342.949V397.672V410.825V423.978H25.4475C11.3937 423.978 0 435.371 0 449.426V470.355C0 484.407 11.3937 495.799 25.4475 495.799Z" fill="white"/>
<path d="M279.854 265.236C342.384 265.236 393.076 214.544 393.076 152.014V31.67C393.076 16.0699 379.028 4.2317 363.653 6.87315C330.337 12.5963 254.366 27.7571 207.096 37.2948C183.555 42.0441 166.631 62.7304 166.631 86.7452V152.015C166.632 214.545 217.323 265.236 279.854 265.236Z" fill="white"/>
<path d="M446.908 405.135C438.133 405.135 429.841 407.186 422.468 410.821C415.917 414.052 410.104 418.542 405.333 423.974C396.893 433.58 391.73 446.129 391.588 459.886C391.586 460.081 391.573 460.272 391.573 460.467V481.18V495.799V508.951V522.104V680.83C391.573 691.14 399.931 699.497 410.239 699.497H693.628H781.333C791.642 699.497 800 691.14 800 680.83V460.467C800 433.692 780.981 411.36 755.714 406.24C752.145 405.518 748.451 405.135 744.669 405.135H466.041H446.908Z" fill="white"/>
<path d="M595.79 375.233C664.374 375.233 719.973 319.633 719.973 251.049V179.46C719.973 153.12 701.409 130.431 675.591 125.222C623.744 114.761 540.418 98.1331 503.877 91.8552C502.283 91.5812 500.702 91.4497 499.146 91.4497C484.239 91.4497 471.605 103.559 471.605 119.053V251.049C471.606 319.633 527.204 375.233 595.79 375.233Z" fill="white"/>
</svg>
