<svg width="668" height="693" viewBox="0 0 668 693" fill="none" xmlns="http://www.w3.org/2000/svg">
<path fill-rule="evenodd" clip-rule="evenodd" d="M263.258 100.664C273.567 71.501 301.38 50.6666 333.997 50.6666C366.613 50.6666 394.427 71.501 404.737 100.664C409.337 113.682 423.62 120.506 436.637 115.904C449.657 111.303 456.48 97.02 451.877 84.0023C434.73 35.4863 388.463 0.666626 333.997 0.666626C279.533 0.666626 233.264 35.4863 216.116 84.0023C211.515 97.02 218.338 111.303 231.356 115.904C244.374 120.506 258.657 113.682 263.258 100.664ZM25.5737 228.699C23.7957 227.544 21.9257 226.643 20.0067 225.988C25.1114 215.401 31.5637 206.208 39.719 198.052C78.7717 159 141.625 159 267.333 159H400.667C526.373 159 589.23 159 628.28 198.052C636.437 206.209 642.89 215.403 647.997 225.992C646.08 226.646 644.213 227.546 642.437 228.699C572.423 274.209 528.437 302.673 491.887 320.933C489.673 309.39 479.523 300.667 467.333 300.667C453.527 300.667 442.333 311.86 442.333 325.667V340.937C371.687 362.253 296.313 362.253 225.667 340.933V325.667C225.667 311.86 214.474 300.667 200.667 300.667C188.48 300.667 178.33 309.387 176.115 320.927C139.567 302.667 95.5814 274.204 25.5737 228.699ZM0.666687 425.667C0.666687 360.65 0.666689 312.45 6.06936 275.656C81.9587 324.983 130.599 356.443 175.667 375.82V392.333C175.667 406.14 186.86 417.333 200.667 417.333C214.291 417.333 225.37 406.437 225.661 392.88C296.67 411.603 371.33 411.603 442.34 392.883C442.633 406.437 453.71 417.333 467.333 417.333C481.14 417.333 492.333 406.14 492.333 392.333V375.823C537.403 356.45 586.043 324.99 661.93 275.663C667.333 312.453 667.333 360.657 667.333 425.667C667.333 551.373 667.333 614.23 628.28 653.28C589.23 692.333 526.373 692.333 400.667 692.333H267.333C141.625 692.333 78.7717 692.333 39.719 653.28C0.666691 614.23 0.666687 551.373 0.666687 425.667Z" fill="white"/>
</svg>
