<svg width="1530" height="1530" viewBox="0 0 1530 1530" fill="none" xmlns="http://www.w3.org/2000/svg">
<path opacity="0.4" d="M764.943 1402.39C715.919 1402.39 666.959 1383.77 629.538 1346.6L583 1300.07C564.959 1282.09 540.798 1272.14 515.17 1272.08H449.699C343.874 1272.08 257.748 1185.95 257.748 1080.13V1014.59C257.684 989.03 247.739 964.869 229.698 946.7L183.925 900.991C108.955 826.468 108.636 704.641 183.224 629.608L229.761 583.006C247.739 564.965 257.684 540.804 257.748 515.176V449.769C257.748 343.88 343.874 257.754 449.699 257.754H515.234C540.798 257.754 564.895 247.809 583.064 229.64L628.9 183.931C703.424 108.961 825.186 108.579 900.284 183.23L946.821 229.768C964.926 247.809 989.024 257.754 1014.59 257.754H1080.12C1185.95 257.754 1272.07 343.88 1272.07 449.769V515.24C1272.14 540.804 1282.08 564.965 1300.12 583.134L1345.9 628.906C1382.17 664.989 1402.25 713.057 1402.44 764.375C1402.57 815.375 1382.94 863.379 1347.17 899.653C1346.53 900.29 1345.96 900.991 1345.32 901.565L1300.06 946.828C1282.08 964.869 1272.14 989.03 1272.07 1014.66V1080.13C1272.07 1185.95 1185.95 1272.08 1080.12 1272.08H1014.59C989.024 1272.14 964.863 1282.09 946.758 1300.13L900.921 1345.9C863.564 1383.52 814.221 1402.39 764.943 1402.39" fill="#393939"/>
<path d="M994.812 600.263C1020.01 641.672 1033.32 689.223 1033.28 737.698C1033.25 792.566 1016.11 846.059 984.247 890.729C952.386 935.399 907.388 969.022 855.52 986.917V1184.43H683.246V986.917C637.426 971.096 596.848 942.961 565.964 905.598C535.08 868.235 515.084 823.087 508.169 775.107C501.254 727.128 507.688 678.172 526.764 633.608C545.84 589.045 576.822 550.596 616.311 522.48C655.799 494.365 702.269 477.669 750.621 474.224C798.974 470.779 847.341 480.719 890.417 502.952C933.492 525.185 969.611 558.853 994.812 600.263Z" stroke="#00F6FF" stroke-width="52.4289" stroke-linecap="round" stroke-linejoin="round"/>
<path d="M885.44 1061.31H656.006V1150.86H885.44V1061.31Z" stroke="#00F6FF" stroke-width="52.4289" stroke-linecap="round" stroke-linejoin="round"/>
<path d="M769.391 264V325.534" stroke="#00F6FF" stroke-width="52.4289" stroke-linecap="round" stroke-linejoin="round"/>
<path d="M1086.37 385.681L1047.34 433.256" stroke="#00F6FF" stroke-width="52.4289" stroke-linecap="round" stroke-linejoin="round"/>
<path d="M443 385.681L482.038 433.256" stroke="#00F6FF" stroke-width="52.4289" stroke-linecap="round" stroke-linejoin="round"/>
</svg>
