<?xml version="1.0" encoding="utf-8"?>
<!-- Generator: Adobe Illustrator 23.0.1, SVG Export Plug-In . SVG Version: 6.00 Build 0)  -->
<svg version="1.1" id="Layer_1" xmlns="http://www.w3.org/2000/svg" xmlns:xlink="http://www.w3.org/1999/xlink" x="0px" y="0px"
	 viewBox="0 0 119 32" style="enable-background:new 0 0 119 32;" xml:space="preserve">
<style type="text/css">
	.st0{fill:#5CE1E6;}
	.st1{fill:#EDD9BD;}
	.st2{fill:#FFFFFF;}
</style>
<g>
	<g id="XMLID_9_">
		<g>
			<g>
				<g>
					<path class="st0" d="M35,5.2l-1.7,5c-1.5-0.7-2.3-1.6-3.1-2.4C29.5,7.2,28.9,6.5,28,6c-1.2-0.8-2.4-1.1-3.6-1.1
						c-0.9,0-1.8,0.2-2.5,0.7c-0.5,0.3-1,0.8-1.4,1.3l0-0.7c2-1.7,4.4-2.7,6.9-2.7c1.1,0,2.2,0.2,3.3,0.6L31,4.3
						C32.5,4.8,33.3,5.1,35,5.2z"/>
				</g>
				<g>
					<path class="st0" d="M36.2,15.2c-0.8-1.4-2.1-2.3-3.9-2.5h0c-2-0.2-3.9,0.6-5.2,1.3c-0.5,0.3-2.7,2-6.6,5.3l-0.1,0.1l-0.1-0.1
						c-1.5-3.2-1.9-6.8-1.2-9.6c-0.1,0-0.1,0-0.2-0.1c-0.3-0.1-0.5-0.2-0.8-0.3c-0.1,0-0.1-0.1-0.2-0.1c-1.2,2-1.8,4.3-1.8,6.7
						c0,2,0.4,4,1.3,5.8l0,0.1l-0.8,0.7c0,0-0.1,0.1-0.1,0.1l0,0c-0.4,0.2-0.9,0.3-1.3,0.1c-0.3-0.1-1.4-0.5-2.1-0.8
						c-1.1-0.5-2.1-1-3.6-1.1v3.8l0,1.5c1.3-0.4,2.1-0.5,3.1-0.5c0.2,0,0.4,0,0.5,0c0.1,0,0.3,0,0.4,0c0.1,0,0.3,0,0.4,0
						c1.1,0,2.2-0.2,3.3-0.6l0,0c0.4-0.1,0.8-0.4,1.2-0.7c0.1-0.1,0.2-0.1,0.3-0.2l0.1-0.1l0.2,0.2c0.1,0.1,0.2,0.3,0.3,0.4
						c2,2.3,4.7,3.6,7.6,3.6c0.1,0,0.2,0,0.3,0c0.1,0,0.1,0,0.2,0c3.6-0.1,6.6-2,8.3-5.4C37.2,20.4,37.3,17.3,36.2,15.2z M35.4,22.9
						c-0.7,1.4-1.7,2.4-3.2,3c-0.8,0.3-1.7,0.4-2.5,0.4c-1.4,0-2.8-0.4-4.2-1.2c-1.2-0.7-2.4-1.6-3.3-2.7c-0.1-0.1-0.2-0.2-0.3-0.3
						L21.8,22l0.3-0.2c0.2-0.2,0.5-0.4,0.7-0.5l0,0c3-2.3,5.1-3.8,5.7-4.2c2.4-1.7,4.7-1.8,6.2-0.2C36.5,18.4,36.3,21,35.4,22.9z"/>
				</g>
				<g>
					<path class="st0" d="M20.1,9.1c-2.3-0.1-3.1-1.7-3.8-3.1C15.8,5,15.3,4,14.2,4h-1.1v17.2c-1-0.4-2-0.9-3.5-1V4H8.4
						C7.3,4,6.8,5,6.3,6.1c-0.7,1.4-1.4,3-3.8,3.1l0.4-5.5h16.7L20.1,9.1z"/>
				</g>
			</g>
		</g>
	</g>
</g>
<g>
	<g>
		<g>
			<path class="st1" d="M115.3,14.6L115.3,14.6l0-0.8C115.3,14.1,115.3,14.3,115.3,14.6z"/>
			<path class="st0" d="M115.5,21.2c0-5.4,0-4.9,0-10.2h-3.9c1.1,1.3,1,4.2,1,5.4v0.5c0,0,0,0.2,0,0.9c0,5.1-5,9.8-5,4.2
				c0-4.6,0-4.4,0-7.4v-0.8c-0.1-0.6-0.3-1.2-0.6-1.6c-0.5-0.8-1.3-1.3-2.5-1.3c-2.6,0-3.9,2.9-4.8,5.2c-0.1,0.2-0.1,0.3-0.2,0.4
				c-0.2,0.3-0.4,0.4-0.6,0.3c-0.2-0.1-0.3-0.6-0.1-1c0.5-1.3,0.9-3.6,0.4-4.8h-3.6c1.1,1.3,1,4.2,1,5.4v0.5c0,0,0,0.2,0,0.9
				c0,5.1-5,9.8-5,4.2c0-5.6,0-5.4,0-11h-3.8c1.1,1.3,1,4.2,1,5.4c0,4.1,0,2.4,0,6.6c0,1.9,0.9,3.7,3.1,3.7c2.6,0,3.6-2.9,4.6-5.2
				c0.1-0.2,0.2-0.3,0.2-0.4c0.2-0.3,0.4-0.3,0.6-0.2c0.2,0.1,0.3,0.5,0.1,1c-0.3,0.8-0.6,2-0.6,3v0.5c0,0.5,0.1,1.2,0.2,1.6h2.6
				l0-7.2c0-4.8,4.5-9.1,5.2-5.2c0,0,0,0,0,0c0.1,0.6,0.1,1.3,0.1,1.8c0,4.1,0,2.4,0,6.6c0,1.9,0.9,3.7,3.1,3.7
				c2.6,0,3.6-2.9,4.6-5.2c0.3-0.7,0.6-0.8,0.8-0.7c0.2,0.1,0.3,0.5,0.1,1c-0.5,1.3-0.9,3.9-0.4,5.1h3.6
				C115.3,25.6,115.5,22.4,115.5,21.2z M115.2,14.6v-0.8C115.3,14.1,115.3,14.3,115.2,14.6L115.2,14.6z"/>
			<path class="st2" d="M61.3,19.8v6.8h-2.9V16.4c0-1-0.2-6.3-0.9-8.8c-0.5-1-0.9-1.9-1.8-1.9h-0.9v21h-3.2v-21h-0.9
				c-2.1,0-1.4,4.4-5.1,4.4l0.4-5h14.6l0.1,0.7c0,0.3,0.1,0.7,0.1,1c0.3,1.9,0.4,7.8-0.1,9c-0.2,0.5-0.1,0.9,0.1,1
				c0.2,0.1,0.5,0,0.8-0.7c0.9-2.3,2.2-5.1,4.8-5.2c2.2,0,3.1,1.7,3.1,3.6l-2.9,1C66.6,10,61.3,14.6,61.3,19.8z"/>
			<path class="st0" d="M69.9,12.7c-0.2-0.5-0.4-0.9-0.7-1.3c0.4-0.1,0.8-0.1,1.3-0.1c0.9,0,2,0.2,2.9,0.7c1.2,0.6,2,1.8,2,2.9
				c0,1.2-0.5,1.9-1.3,2.5c-0.7,0.5-1.6,0.7-2.3,1.1c-0.7,0.3-1.3,0.6-1.9,1.1c-1,0.8-1.5,1.9-1.2,3.6c-0.2-0.2-0.4-0.4-0.5-0.6
				c-0.1-2,0.4-3,1.4-3.9c0.5-0.5,1.1-0.9,1.7-1.4c0.8-0.6,1.2-1.3,1.2-1.9c0-0.8-0.4-1.5-1.4-2.1C70.6,13,70.3,12.8,69.9,12.7z"/>
			<path class="st0" d="M86.9,10.9c-0.6,1.1-1,2.1-0.8,3.8c0.1,1.1-0.2,1.8-1,1.9c-1.1,0.2-1.9-1.4-2.1-2.4
				c-0.2-0.5-0.4-1.3-0.8-1.8c-0.9-1.3-2.2-0.1-2.7,0.9c-0.4,0.8-0.7,1.9-0.7,3.1c-0.1,1,0.1,2.5,0.8,3.3c0.4,0.5,0.8,0.8,1.3,1
				c0.7,0.2,1.4,0,2-0.6c0.6-0.6,1.5-1.9,2.5-1.7c0.6,0.2,0.6,0.8,0.6,1.3v3.6c0,1.1-0.5,3.1-3.1,3.1c-2,0-2.9-0.7-4-0.9
				c-0.2,0-0.5-0.1-1-0.1c-1.7-0.1-3.5,0.2-5.1,0.9c-0.7,0.3-1.5,0.5-2.4,0.5c-3.9,0-7.1-3.5-7.1-7.9c0-2,0.7-3.9,1.8-5.2
				c0,0,0,0,0,0c0.2,0,0.4,0.4,0.5,1.3c-0.3,1.2-0.2,2.7,0.3,4.1c0.7,2.2,1.8,4.2,3.6,5.3c0.2,0.1,0.5,0.3,0.8,0.4
				c1.2,0.5,2.5,0.3,3.6-0.3c1.4-0.8,4-1,4.8-1.1c1.4-0.1,2.7,0.9,4.2,0.9c0.9,0,1.5-0.4,1.9-0.9c0.3-0.5,0.5-1,0.6-1.7
				c0-0.6-0.1-1.3-0.5-1.7c-0.4-0.5-1-0.5-1.7,0.2c-0.2,0.2-0.4,0.4-0.5,0.5c-0.7,0.6-1.5,1.2-2.8,1.2c-1.2,0-2.1-0.6-2.7-1.5
				c-0.7-1-0.9-2.4-0.9-3.6c0.1-1.4,0.5-3.1,1.4-4.3c0.8-1.1,1.9-1.8,3.3-1.8c2,0,1.8,2.5,2.4,3.7c0.2,0.4,0.4,0.5,0.6,0.4
				c0.2-0.1,0.3-0.4,0.1-0.7c-0.4-0.9-0.7-2.6-0.3-3.4H86.9z"/>
			<path class="st1" d="M115.3,14.6L115.3,14.6l0-0.8C115.3,14.1,115.3,14.3,115.3,14.6z"/>
		</g>
	</g>
</g>
</svg>
