<svg width="800" height="642" viewBox="0 0 800 642" fill="none" xmlns="http://www.w3.org/2000/svg">
<path d="M506.119 377.591C506.119 436.236 458.645 483.71 400 483.71C341.355 483.71 293.881 436.236 293.881 377.591C293.881 318.947 341.355 271.472 400 271.472C458.645 271.472 506.119 318.947 506.119 377.591ZM723.285 111.637C765.667 111.637 800 145.969 800 188.351V389.419V559.932C800 605.107 763.368 641.739 718.193 641.739H81.807C36.6324 641.739 5.72205e-06 605.107 5.72205e-06 559.932V389.255V188.351C5.72205e-06 145.969 34.3327 111.637 76.7146 111.637H230.144L237.372 81.0821C248.378 33.772 290.595 0.260742 339.22 0.260742H460.945C509.569 0.260742 551.786 33.772 562.793 81.0821L569.856 111.637H723.285ZM160 222.355C160 201.164 142.752 183.916 121.561 183.916C100.205 183.916 82.9569 201.164 82.9569 222.355C82.9569 243.546 100.205 260.795 121.396 260.795C142.752 260.959 160 243.71 160 222.355ZM589.24 377.591C589.24 273.115 504.476 188.351 400 188.351C295.524 188.351 210.76 273.115 210.76 377.591C210.76 482.068 295.524 566.832 400 566.832C504.476 566.832 589.24 482.068 589.24 377.591Z" fill="white"/>
</svg>
