<svg width="813" height="949" viewBox="0 0 813 949" fill="none" xmlns="http://www.w3.org/2000/svg">
<path d="M508.125 203.25C528.45 203.25 542 189.7 542 169.375V101.625C542 44.0375 497.963 0 440.375 0H101.625C44.0375 0 0 44.0375 0 101.625V846.875C0 904.463 44.0375 948.5 101.625 948.5H440.375C497.963 948.5 542 904.463 542 846.875V711.375C542 691.05 528.45 677.5 508.125 677.5H67.75V203.25H508.125ZM237.125 779.125H304.875C325.2 779.125 338.75 792.675 338.75 813C338.75 833.325 325.2 846.875 304.875 846.875H237.125C216.8 846.875 203.25 833.325 203.25 813C203.25 792.675 216.8 779.125 237.125 779.125Z" fill="white"/>
<path d="M338.75 575.875C328.587 575.875 321.812 572.488 315.037 565.713L213.413 464.087C199.863 450.537 199.863 430.212 213.413 416.662L315.037 315.038C328.587 301.488 348.912 301.488 362.462 315.038C376.012 328.588 376.012 348.912 362.462 362.462L284.55 440.375L362.462 518.287C376.012 531.837 376.012 552.163 362.462 565.713C355.687 572.488 348.912 575.875 338.75 575.875Z" fill="white"/>
<path d="M677.5 575.875C667.338 575.875 660.563 572.488 653.788 565.713C640.238 552.163 640.238 531.837 653.788 518.287L731.7 440.375L653.788 362.462C640.238 348.912 640.238 328.588 653.788 315.038C667.338 301.488 687.663 301.488 701.213 315.038L802.838 416.662C816.388 430.212 816.388 450.537 802.838 464.087L701.213 565.713C694.438 572.488 687.663 575.875 677.5 575.875Z" fill="white"/>
<path d="M440.375 609.75C436.988 609.75 430.213 609.75 426.825 606.363C409.888 599.588 403.113 579.263 413.275 562.325L548.775 291.325C555.55 274.388 575.875 267.613 592.813 277.775C609.75 284.55 616.525 304.875 606.363 321.813L470.863 592.813C464.088 602.975 453.925 609.75 440.375 609.75Z" fill="white"/>
</svg>
