<svg width="800" height="800" viewBox="0 0 800 800" fill="none" xmlns="http://www.w3.org/2000/svg">
<g clip-path="url(#clip0_251558_25)">
<path d="M781.977 103.532C806.008 79.4988 806.008 40.535 781.977 16.5023C757.946 -7.52975 718.98 -7.52975 694.949 16.5023L18.0231 693.428C-6.009 717.459 -6.009 756.425 18.0231 780.456C42.0558 804.487 81.0196 804.487 105.052 780.456L781.977 103.532Z" fill="white"/>
<path d="M330.086 189.248L603.078 21.3447L312.099 312.325H153.846V470.578L51.1539 573.268C38.4018 557.44 30.7686 537.311 30.7686 515.403V281.556C30.7686 230.576 72.0961 189.248 123.077 189.248H330.086Z" fill="white"/>
<path d="M646.155 657.613L441.065 531.471L351.6 620.942L628.567 791.287C690.069 829.115 769.232 784.868 769.232 712.665V203.306L646.155 326.381V657.613Z" fill="white"/>
</g>
<defs>
<clipPath id="clip0_251558_25">
<rect width="800" height="800" fill="white"/>
</clipPath>
</defs>
</svg>
