<svg width="800" height="800" viewBox="0 0 800 800" fill="none" xmlns="http://www.w3.org/2000/svg">
<path d="M66.6667 200C66.6667 137.146 66.6667 105.719 86.1931 86.193C105.719 66.6666 137.146 66.6666 200 66.6666C262.854 66.6666 294.281 66.6666 313.807 86.193C333.333 105.719 333.333 137.146 333.333 200V600C333.333 662.853 333.333 694.28 313.807 713.807C294.281 733.333 262.854 733.333 200 733.333C137.146 733.333 105.719 733.333 86.1931 713.807C66.6667 694.28 66.6667 662.853 66.6667 600V200Z" fill="white"/>
<path d="M466.667 200C466.667 137.146 466.667 105.719 486.193 86.193C505.72 66.6666 537.147 66.6666 600 66.6666C662.853 66.6666 694.28 66.6666 713.806 86.193C733.333 105.719 733.333 137.146 733.333 200V600C733.333 662.853 733.333 694.28 713.806 713.807C694.28 733.333 662.853 733.333 600 733.333C537.147 733.333 505.72 733.333 486.193 713.807C466.667 694.28 466.667 662.853 466.667 600V200Z" fill="white"/>
</svg>
