<svg width="1024" height="1024" viewBox="0 0 1024 1024" fill="none" xmlns="http://www.w3.org/2000/svg">
<path d="M756.386 521.749H455.286C430.679 521.749 410.811 501.88 410.811 477.273C410.811 452.674 430.679 432.802 455.286 432.802H756.386C780.99 432.802 800.858 452.673 800.858 477.273C800.858 501.881 780.8 521.749 756.386 521.749ZM756.386 697.764H455.286C430.679 697.764 410.811 677.892 410.811 653.289C410.811 628.689 430.679 608.814 455.286 608.814H756.386C780.99 608.814 800.858 628.689 800.858 653.289C800.858 677.892 780.8 697.764 756.386 697.764ZM960.778 843.112V280.641C960.778 212.319 898.513 218.757 898.513 218.757C898.513 218.757 526.822 219.132 546.693 218.757C525.496 219.132 514.706 207.586 514.706 207.586C514.706 207.586 499.946 182.041 473.262 141.916C445.442 99.7161 413.081 106.527 413.081 106.527H139.421C63.5295 106.527 62.7722 179.58 62.7722 179.58V839.513C62.7722 920.891 124.277 910.864 124.277 910.864H904.192C970.054 910.864 960.778 843.112 960.778 843.112ZM904.952 809.803C904.952 834.974 884.702 855.225 859.529 855.225H164.023C138.85 855.225 118.604 834.974 118.604 809.803V338.933C118.604 313.759 138.85 293.513 164.023 293.513H859.53C884.703 293.513 904.953 313.759 904.953 338.933V809.803H904.952ZM242.566 477.274C242.566 503.51 263.831 524.783 290.065 524.783C316.299 524.783 337.569 503.51 337.569 477.274C337.569 451.046 316.299 429.775 290.065 429.775C263.83 429.775 242.566 451.04 242.566 477.274ZM242.566 653.289C242.566 679.524 263.831 700.793 290.065 700.793C316.299 700.793 337.569 679.524 337.569 653.289C337.569 627.051 316.299 605.79 290.065 605.79C263.83 605.79 242.566 627.052 242.566 653.289Z" fill="white"/>
</svg>
