<svg width="668" height="668" viewBox="0 0 668 668" fill="none" xmlns="http://www.w3.org/2000/svg">
<path d="M334 200.667C397.333 200.667 450.667 244 464 304C467.333 320.667 487.333 334 504 327.333C520.667 324 534 304 527.333 287.333C507.333 194 427.333 134 334 134C224 134 134 224 134 334C134 437.333 214 524 317.333 534H320.667C337.333 534 350.667 520.667 354 504C357.333 487.333 340.667 470.667 324 467.333C257.333 460.667 200.667 400.667 200.667 334C200.667 260.667 260.667 200.667 334 200.667Z" fill="white"/>
<path d="M334 600.667C187.333 600.667 67.3334 480.667 67.3334 334C67.3334 187.333 187.333 67.3334 334 67.3334C474 67.3334 590.667 177.333 600.667 317.333C600.667 337.333 617.333 350.667 637.333 347.333C657.333 347.333 670.667 330.667 667.333 310.667C654 137.333 510.667 0.666748 334 0.666748C150.667 0.666748 0.666687 150.667 0.666687 334C0.666687 517.333 150.667 667.333 334 667.333C354 667.333 367.333 654 367.333 634C367.333 614 354 600.667 334 600.667Z" fill="white"/>
<path d="M644 417.333C640.667 414 634 410.667 630.667 410.667L414 337.333C394 330.667 370.667 337.333 354 354C337.333 370.667 334 394 344 414L444 634C454 654 474 667.333 494 667.333C497.333 667.333 500.667 667.333 504 667.333C530.667 664 547.333 644 550.667 617.333L560.667 537.333L627.333 517.333C647.333 510.667 664 494 667.333 470.667C670.667 450.667 660.667 427.333 644 417.333ZM537.333 474C514 480.667 500.667 497.333 497.333 520.667L490.667 570.667L417.333 407.333L577.333 460.667L537.333 474Z" fill="white"/>
</svg>
