<svg width="846" height="846" viewBox="0 0 846 846" fill="none" xmlns="http://www.w3.org/2000/svg">
<path d="M793.487 14.717C793.146 14.6249 792.803 14.549 792.458 14.4891C781.676 11.7073 769.965 10.859 758.581 11.9784C746.851 13.1317 735.567 16.3657 726.153 21.5835L726.142 21.5894L344.383 233.698H150.273C113.38 233.698 79.4134 242.824 54.2942 258.174C29.3752 273.403 11.5 295.984 11.5 322.976V522.977C11.5 548.984 28.3563 571.944 54.2806 587.787C80.2958 603.685 114.841 612.255 150.273 612.255H344.383L726.135 824.36C735.543 829.596 746.829 832.846 758.565 834.012C770.324 835.18 782.435 834.248 793.516 831.254C804.535 828.276 814.583 823.238 822.045 816.23C829.572 809.162 834.511 799.967 834.5 789.632V56.3087V56.307C834.498 45.9757 829.551 36.7875 822.021 29.7258C814.555 22.7239 804.506 17.6909 793.487 14.717ZM702.409 151.189V694.764L410.768 532.703L410.766 532.702C398.722 526.011 383.634 522.582 368.455 522.588C368.453 522.588 368.451 522.588 368.449 522.588H150.273C147.171 522.588 144.848 521.833 143.591 521.123V324.828C144.898 324.09 147.269 323.365 150.273 323.365L368.449 323.365C368.451 323.365 368.453 323.365 368.455 323.365C383.634 323.371 398.722 319.942 410.766 313.252L410.768 313.251L702.409 151.189ZM142.832 520.597C142.835 520.596 142.862 520.619 142.903 520.666C142.85 520.621 142.829 520.598 142.832 520.597Z" fill="white" stroke="white" stroke-width="23" stroke-linejoin="round"/>
</svg>
