<svg width="558" height="557" viewBox="0 0 558 557" fill="none" xmlns="http://www.w3.org/2000/svg">
<path d="M533.328 124.4H506.568V370C506.568 394.264 486.824 414 462.568 414H95.664C71.4 414 51.664 394.264 51.664 370V124.4H24.904C11.648 124.4 0.903992 135.144 0.903992 148.4V452.4C0.903992 465.656 11.648 476.4 24.904 476.4H533.328C546.584 476.4 557.328 465.656 557.328 452.4V148.4C557.328 135.144 546.584 124.4 533.328 124.4ZM279.112 455.2C273.592 455.2 269.112 450.72 269.112 445.2C269.112 439.68 273.592 435.2 279.112 435.2C284.64 435.2 289.112 439.68 289.112 445.2C289.112 450.72 284.64 455.2 279.112 455.2Z" fill="white"/>
<path d="M352.048 553.168L350.504 556.615H207.728L206.176 553.168C200.368 540.176 203.168 524.952 213.232 514.888L231.72 496.4H326.512L345 514.888C355.056 524.952 357.864 540.176 352.048 553.168Z" fill="white"/>
<path d="M71.6648 24.1848V82.4248H486.615V24.1848C486.615 10.9848 475.815 0.184814 462.615 0.184814H95.6648C82.4648 0.184814 71.6648 10.9848 71.6648 24.1848ZM412.6 41.3056C412.6 35.8056 417.1 31.3056 422.6 31.3056H445C450.5 31.3056 455 35.8056 455 41.3056C455 46.8056 450.5 51.3056 445 51.3056H422.6C417.1 51.3056 412.6 46.8056 412.6 41.3056ZM345.8 41.3056C345.8 35.8056 350.3 31.3056 355.8 31.3056H378.2C383.7 31.3056 388.2 35.8056 388.2 41.3056C388.2 46.8056 383.7 51.3056 378.2 51.3056H355.8C350.3 51.3056 345.8 46.8056 345.8 41.3056ZM279 41.3056C279 35.8056 283.5 31.3056 289 31.3056H311.4C316.9 31.3056 321.4 35.8056 321.4 41.3056C321.4 46.8056 316.9 51.3056 311.4 51.3056H289C283.5 51.3056 279 46.8056 279 41.3056Z" fill="white"/>
<path d="M366.577 166C355.26 166 346.086 175.174 346.086 186.49C346.086 197.807 355.26 206.982 366.577 206.982C377.894 206.982 387.068 197.807 387.068 186.49C387.068 175.174 377.894 166 366.577 166Z" fill="white"/>
<path d="M366.578 300.4C361.064 300.4 356.578 304.677 356.578 309.934C356.578 315.19 361.064 319.468 366.578 319.468C372.092 319.468 376.578 315.19 376.578 309.934C376.578 304.677 372.091 300.4 366.578 300.4Z" fill="white"/>
<path d="M71.6648 102.425V370C71.6648 383.2 82.4648 394 95.6648 394H462.615C475.815 394 486.615 383.2 486.615 370V102.425H71.6648ZM311.598 256.781C311.598 261.115 308.354 264.765 304.05 265.272L290.321 266.89C288.631 274.692 285.553 281.982 281.354 288.485L289.932 299.357C292.617 302.759 292.33 307.634 289.266 310.699L283.911 316.053C280.846 319.118 275.972 319.405 272.569 316.719L261.698 308.141C255.194 312.34 247.905 315.419 240.102 317.108L238.484 330.838C237.976 335.142 234.327 338.386 229.993 338.386H222.421C218.086 338.386 214.438 335.142 213.93 330.838L212.311 317.108C204.51 315.419 197.219 312.34 190.716 308.141L179.845 316.719C176.442 319.405 171.568 319.118 168.502 316.053L163.148 310.699C160.083 307.634 159.797 302.759 162.482 299.357L171.06 288.485C166.861 281.982 163.782 274.692 162.093 266.89L148.364 265.272C144.058 264.764 140.815 261.115 140.815 256.781V249.208C140.815 244.874 144.059 241.225 148.364 240.717L162.093 239.098C163.782 231.297 166.861 224.007 171.06 217.504L162.482 206.632C159.797 203.229 160.082 198.355 163.148 195.29L168.502 189.936C171.568 186.87 176.442 186.585 179.845 189.27L190.716 197.848C197.219 193.648 204.509 190.57 212.311 188.881L213.93 175.151C214.437 170.846 218.086 167.602 222.421 167.602H229.993C234.328 167.602 237.977 170.847 238.484 175.151L240.102 188.881C247.904 190.57 255.194 193.648 261.698 197.848L272.569 189.27C275.972 186.585 280.846 186.87 283.911 189.936L289.266 195.29C292.33 198.355 292.617 203.229 289.932 206.632L281.354 217.504C285.554 224.007 288.632 231.297 290.321 239.098L304.05 240.717C308.354 241.225 311.598 244.874 311.598 249.208V256.781ZM417.468 312.19C417.468 314.774 415.534 316.948 412.969 317.25L404.786 318.215C403.779 322.866 401.945 327.209 399.442 331.085L404.554 337.564C406.154 339.592 405.984 342.497 404.158 344.323L400.966 347.514C399.14 349.341 396.235 349.512 394.207 347.911L387.728 342.799C383.853 345.302 379.508 347.137 374.858 348.143L373.894 356.326C373.591 358.891 371.417 360.825 368.833 360.825H364.32C361.737 360.825 359.562 358.891 359.259 356.326L358.294 348.143C353.645 347.137 349.3 345.302 345.425 342.799L338.946 347.911C336.918 349.512 334.013 349.341 332.186 347.514L328.995 344.323C327.169 342.497 326.998 339.592 328.598 337.564L333.71 331.085C331.207 327.209 329.373 322.865 328.366 318.215L320.184 317.25C317.618 316.948 315.685 314.773 315.685 312.19V307.677C315.685 305.094 317.618 302.919 320.184 302.617L328.366 301.652C329.373 297.002 331.208 292.658 333.71 288.782L328.598 282.302C326.998 280.274 327.169 277.37 328.995 275.543L332.186 272.353C334.014 270.526 336.918 270.355 338.946 271.955L345.425 277.068C349.3 274.566 353.645 272.73 358.294 271.723L359.259 263.541C359.562 260.975 361.736 259.042 364.32 259.042H368.833C371.416 259.042 373.591 260.975 373.894 263.541L374.858 271.723C379.508 272.73 383.853 274.566 387.728 277.068L394.207 271.955C396.235 270.355 399.14 270.526 400.966 272.353L404.158 275.543C405.984 277.37 406.155 280.274 404.554 282.302L399.442 288.782C401.946 292.658 403.78 297.002 404.786 301.652L412.969 302.617C415.534 302.919 417.468 305.094 417.468 307.677V312.19ZM417.468 188.748C417.468 191.331 415.534 193.506 412.969 193.808L404.786 194.773C403.779 199.423 401.945 203.767 399.442 207.642L404.554 214.122C406.154 216.15 405.984 219.055 404.158 220.882L400.966 224.072C399.14 225.898 396.235 226.07 394.207 224.47L387.728 219.357C383.853 221.859 379.508 223.694 374.858 224.702L373.894 232.883C373.591 235.449 371.417 237.382 368.833 237.382H364.32C361.737 237.382 359.562 235.449 359.259 232.883L358.294 224.702C353.645 223.694 349.3 221.859 345.425 219.357L338.946 224.47C336.918 226.07 334.013 225.898 332.186 224.072L328.995 220.882C327.169 219.055 326.998 216.15 328.598 214.122L333.71 207.642C331.207 203.767 329.373 199.423 328.366 194.773L320.184 193.808C317.618 193.506 315.685 191.331 315.685 188.748V184.234C315.685 181.652 317.618 179.477 320.184 179.174L328.366 178.21C329.373 173.561 331.208 169.215 333.71 165.34L328.598 158.861C326.998 156.833 327.169 153.928 328.995 152.101L332.186 148.91C334.014 147.084 336.918 146.913 338.946 148.514L345.425 153.626C349.3 151.123 353.645 149.288 358.294 148.282L359.259 140.099C359.562 137.534 361.736 135.6 364.32 135.6H368.833C371.416 135.6 373.591 137.534 373.894 140.099L374.858 148.282C379.508 149.288 383.853 151.123 387.728 153.626L394.207 148.514C396.235 146.913 399.14 147.084 400.966 148.91L404.158 152.101C405.984 153.928 406.155 156.833 404.554 158.861L399.442 165.34C401.946 169.215 403.78 173.559 404.786 178.21L412.969 179.174C415.534 179.477 417.468 181.652 417.468 184.234V188.748Z" fill="white"/>
<path d="M226.205 207.394C201.061 207.394 180.605 227.85 180.605 252.994C180.605 278.138 201.061 298.594 226.205 298.594C251.349 298.594 271.805 278.138 271.805 252.994C271.805 227.85 251.349 207.394 226.205 207.394ZM226.205 278.594C212.089 278.594 200.605 267.11 200.605 252.994C200.605 238.878 212.089 227.394 226.205 227.394C240.321 227.394 251.805 238.878 251.805 252.994C251.805 267.11 240.321 278.594 226.205 278.594Z" fill="white"/>
</svg>
